<mxfile host="65bd71144e">
    <diagram id="WH9oHksoD1uJccYumJbU" name="Страница 1">
        <mxGraphModel dx="834" dy="403" grid="1" gridSize="10" guides="1" tooltips="1" connect="1" arrows="1" fold="1" page="1" pageScale="1" pageWidth="850" pageHeight="1100" math="0" shadow="0">
            <root>
                <mxCell id="0"/>
                <mxCell id="1" parent="0"/>
                <mxCell id="3" value="Запуск" style="strokeWidth=2;html=1;shape=mxgraph.flowchart.terminator;whiteSpace=wrap;" vertex="1" parent="1">
                    <mxGeometry x="410" y="20" width="170" height="102" as="geometry"/>
                </mxCell>
                <mxCell id="5" value="Данные;&lt;br&gt;Функция&lt;br&gt;обратного&lt;br&gt;вызова" style="shape=parallelogram;html=1;strokeWidth=2;perimeter=parallelogramPerimeter;whiteSpace=wrap;rounded=1;arcSize=12;size=0.23;" vertex="1" parent="1">
                    <mxGeometry x="410" y="190" width="170" height="102" as="geometry"/>
                </mxCell>
                <mxCell id="6" value="" style="endArrow=classic;html=1;exitX=0.5;exitY=1;exitDx=0;exitDy=0;exitPerimeter=0;entryX=0.5;entryY=0;entryDx=0;entryDy=0;" edge="1" parent="1" source="3" target="5">
                    <mxGeometry width="50" height="50" relative="1" as="geometry">
                        <mxPoint x="400" y="220" as="sourcePoint"/>
                        <mxPoint x="450" y="170" as="targetPoint"/>
                    </mxGeometry>
                </mxCell>
                <mxCell id="7" value="Останов" style="strokeWidth=2;html=1;shape=mxgraph.flowchart.terminator;whiteSpace=wrap;" vertex="1" parent="1">
                    <mxGeometry x="410" y="701" width="170" height="102" as="geometry"/>
                </mxCell>
                <mxCell id="8" value="Функция принимает&lt;br&gt;в качестве аргументов&lt;br&gt;данные, необходимые&lt;br&gt;для её работы, а так же&lt;br&gt;функцию обратного&lt;br&gt;вызова, которую она&lt;br&gt;выполнит в какой-то&amp;nbsp;&lt;br&gt;подходящий момент" style="strokeWidth=2;html=1;shape=mxgraph.flowchart.annotation_2;align=left;labelPosition=right;pointerEvents=1;" vertex="1" parent="1">
                    <mxGeometry x="560" y="191" width="50" height="100" as="geometry"/>
                </mxCell>
                <mxCell id="9" value="" style="endArrow=classic;html=1;exitX=0.5;exitY=1;exitDx=0;exitDy=0;exitPerimeter=0;entryX=0.5;entryY=0;entryDx=0;entryDy=0;" edge="1" parent="1">
                    <mxGeometry width="50" height="50" relative="1" as="geometry">
                        <mxPoint x="494.5" y="291" as="sourcePoint"/>
                        <mxPoint x="494.5" y="359" as="targetPoint"/>
                    </mxGeometry>
                </mxCell>
                <mxCell id="10" value="Функция выполняет свои&lt;br&gt;операции с переданными&lt;br&gt;данными" style="rounded=1;whiteSpace=wrap;html=1;absoluteArcSize=1;arcSize=14;strokeWidth=2;" vertex="1" parent="1">
                    <mxGeometry x="410" y="360" width="170" height="102" as="geometry"/>
                </mxCell>
                <mxCell id="11" value="" style="endArrow=classic;html=1;exitX=0.5;exitY=1;exitDx=0;exitDy=0;exitPerimeter=0;entryX=0.5;entryY=0;entryDx=0;entryDy=0;" edge="1" parent="1">
                    <mxGeometry width="50" height="50" relative="1" as="geometry">
                        <mxPoint x="494.5" y="462" as="sourcePoint"/>
                        <mxPoint x="494.5" y="530" as="targetPoint"/>
                    </mxGeometry>
                </mxCell>
                <mxCell id="12" value="Функция обратного&lt;br&gt;вызова" style="verticalLabelPosition=middle;verticalAlign=middle;html=1;shape=process;whiteSpace=wrap;rounded=1;size=0.14;arcSize=6;aspect=fixed;labelPosition=center;align=center;" vertex="1" parent="1">
                    <mxGeometry x="410" y="530" width="170" height="102" as="geometry"/>
                </mxCell>
                <mxCell id="15" value="" style="endArrow=classic;html=1;exitX=0.5;exitY=1;exitDx=0;exitDy=0;exitPerimeter=0;entryX=0.5;entryY=0;entryDx=0;entryDy=0;" edge="1" parent="1">
                    <mxGeometry width="50" height="50" relative="1" as="geometry">
                        <mxPoint x="494.5" y="632" as="sourcePoint"/>
                        <mxPoint x="494.5" y="700" as="targetPoint"/>
                    </mxGeometry>
                </mxCell>
                <mxCell id="16" value="Функция обратного вызова&lt;br&gt;&lt;div&gt;выполняет дополнительную&lt;/div&gt;&lt;div&gt;полезную работу внутри&lt;/div&gt;&lt;div&gt;вызывающей функции&lt;/div&gt;&lt;div&gt;или продолжает обработку&lt;/div&gt;&lt;div&gt;данных после выполнения&lt;/div&gt;&lt;div&gt;вызывающей функции&lt;/div&gt;" style="strokeWidth=2;html=1;shape=mxgraph.flowchart.annotation_2;align=left;labelPosition=right;pointerEvents=1;" vertex="1" parent="1">
                    <mxGeometry x="580" y="531" width="50" height="100" as="geometry"/>
                </mxCell>
            </root>
        </mxGraphModel>
    </diagram>
</mxfile>